# xmcd
#
# Track frame offsets: 
#        225
#        16407
#        31595
#        46917
#        65790
#        82425
#        98007
#        112525
#        127382
#        145037
#        167167
#
# Disc length: 2460 seconds
#
# Revision: 2
# Processed by: cddbd v1.5.2PL0 Copyright (c) Steve Scherf et al.
# Submitted via: ExactAudioCopyFreeDBPlugin 1.0
#
DISCID=9109990b
DTITLE=Ian Tyson - I Outgrew The Wagon
DYEAR=1989
DGENRE=Country
TTITLE0=Cowboys Don't Cry
TTITLE1=Casey Tibbs
TTITLE2=I Outgrew The Wagon
TTITLE3=Arms of Corey Jo
TTITLE4=Adelita Rose
TTITLE5=Irving Berlin (is 100 years old today)
TTITLE6=Since the Rain
TTITLE7=The Wind in the Wire
TTITLE8=Four Strong Winds
TTITLE9=The Banks of the Musselshell
TTITLE10=The Steeldust Line
EXTD=
EXTT0=
EXTT1=
EXTT2=
EXTT3=
EXTT4=
EXTT5=
EXTT6=
EXTT7=
EXTT8=
EXTT9=
EXTT10=
PLAYORDER=
